<svg xmlns="http://www.w3.org/2000/svg" width="32.799" height="32.792" viewBox="0 0 32.799 32.792"><defs><style>.a{fill:#f2a765;}</style></defs><path class="a" d="M16.328,39.813a8.407,8.407,0,1,0,8.407,8.407A8.394,8.394,0,0,0,16.328,39.813Zm0,13.873a5.466,5.466,0,1,1,5.466-5.466A5.476,5.476,0,0,1,16.328,53.687ZM27.04,39.47a1.961,1.961,0,1,1-1.961-1.961A1.956,1.956,0,0,1,27.04,39.47Zm5.568,1.99a9.7,9.7,0,0,0-2.649-6.871,9.768,9.768,0,0,0-6.871-2.649c-2.707-.154-10.822-.154-13.529,0a9.754,9.754,0,0,0-6.871,2.641A9.736,9.736,0,0,0,.04,41.452c-.154,2.707-.154,10.822,0,13.529a9.7,9.7,0,0,0,2.649,6.871A9.78,9.78,0,0,0,9.56,64.5c2.707.154,10.822.154,13.529,0a9.7,9.7,0,0,0,6.871-2.649,9.768,9.768,0,0,0,2.649-6.871C32.762,52.274,32.762,44.167,32.608,41.46Zm-3.5,16.427A5.534,5.534,0,0,1,25.994,61c-2.159.856-7.28.659-9.666.659s-7.515.19-9.666-.659a5.534,5.534,0,0,1-3.117-3.117c-.856-2.159-.659-7.281-.659-9.666s-.19-7.515.659-9.666a5.534,5.534,0,0,1,3.117-3.117c2.159-.856,7.28-.659,9.666-.659s7.515-.19,9.666.659a5.534,5.534,0,0,1,3.117,3.117c.856,2.159.659,7.281.659,9.666S29.967,55.735,29.111,57.887Z" transform="translate(0.075 -31.825)"/></svg>