<svg xmlns="http://www.w3.org/2000/svg" width="30.076" height="30.076" viewBox="0 0 30.076 30.076"><defs><style>.a{fill:#d87152;}</style></defs><path class="a" d="M27.928,32H2.142A2.158,2.158,0,0,0,0,34.168V59.908a2.158,2.158,0,0,0,2.142,2.168H27.928a2.163,2.163,0,0,0,2.148-2.168V34.168A2.163,2.163,0,0,0,27.928,32ZM9.09,57.78H4.632V43.426H9.1V57.78ZM6.861,41.466a2.585,2.585,0,1,1,2.585-2.585A2.586,2.586,0,0,1,6.861,41.466ZM25.8,57.78H21.342V50.8c0-1.665-.034-3.807-2.316-3.807-2.323,0-2.679,1.813-2.679,3.686v7.1H11.889V43.426h4.276v1.96h.06a4.7,4.7,0,0,1,4.223-2.316c4.511,0,5.351,2.974,5.351,6.841Z" transform="translate(0 -32)"/></svg>