<svg xmlns="http://www.w3.org/2000/svg" width="39.964" height="29.974" viewBox="0 0 39.964 29.974"><defs><style>.a{fill:#f8de6f;}</style></defs><path class="a" d="M36.218,64H3.747A3.747,3.747,0,0,0,0,67.747v22.48a3.747,3.747,0,0,0,3.747,3.747H36.218a3.747,3.747,0,0,0,3.747-3.747V67.747A3.747,3.747,0,0,0,36.218,64Zm0,3.747v3.185c-1.75,1.425-4.54,3.641-10.505,8.312-1.315,1.034-3.918,3.518-5.73,3.489-1.812.029-4.416-2.456-5.73-3.489C8.288,74.574,5.5,72.357,3.747,70.932V67.747ZM3.747,90.227V75.739c1.789,1.425,4.325,3.424,8.191,6.451,1.706,1.343,4.694,4.308,8.045,4.29,3.334.018,6.284-2.9,8.044-4.289,3.866-3.027,6.4-5.027,8.192-6.452V90.227Z" transform="translate(0 -64)"/></svg>